<mxfile host="app.diagrams.net" modified="2023-08-29T21:15:32.443Z" agent="Mozilla/5.0 (Windows NT 10.0; Win64; x64) AppleWebKit/537.36 (KHTML, like Gecko) Chrome/116.0.0.0 Safari/537.36" etag="GJosSIelie9130ipA6lg" version="21.7.0" type="github">
  <diagram name="Página-1" id="H_9z4XiNr1iYHsZXEgPZ">
    <mxGraphModel dx="880" dy="516" grid="1" gridSize="10" guides="1" tooltips="1" connect="1" arrows="1" fold="1" page="1" pageScale="1" pageWidth="827" pageHeight="1169" background="#000033" math="0" shadow="0">
      <root>
        <mxCell id="0" />
        <mxCell id="1" parent="0" />
        <mxCell id="esi2cajje_tVkEboG6L--1" value="CAMIONERO" style="rounded=0;whiteSpace=wrap;html=1;strokeColor=#FFFFFF;fillColor=#33FF33;" parent="1" vertex="1">
          <mxGeometry x="220" y="160" width="120" height="60" as="geometry" />
        </mxCell>
        <mxCell id="esi2cajje_tVkEboG6L--7" value="Nombre" style="ellipse;whiteSpace=wrap;html=1;fillColor=#000033;fontColor=#FFFFFF;strokeColor=#FFFFFF;" parent="1" vertex="1">
          <mxGeometry x="50" y="70" width="100" height="50" as="geometry" />
        </mxCell>
        <mxCell id="esi2cajje_tVkEboG6L--11" value="" style="endArrow=none;html=1;rounded=0;entryX=0.43;entryY=1.06;entryDx=0;entryDy=0;entryPerimeter=0;exitX=0.858;exitY=-0.05;exitDx=0;exitDy=0;exitPerimeter=0;" parent="1" source="esi2cajje_tVkEboG6L--1" edge="1">
          <mxGeometry width="50" height="50" relative="1" as="geometry">
            <mxPoint x="320" y="220" as="sourcePoint" />
            <mxPoint x="333" y="83" as="targetPoint" />
          </mxGeometry>
        </mxCell>
        <mxCell id="esi2cajje_tVkEboG6L--12" value="Población" style="ellipse;whiteSpace=wrap;html=1;fillColor=#000033;fontColor=#FFFFFF;strokeColor=#FFFFFF;" parent="1" vertex="1">
          <mxGeometry x="160" y="30" width="100" height="50" as="geometry" />
        </mxCell>
        <mxCell id="esi2cajje_tVkEboG6L--13" value="&lt;u&gt;RFC&lt;/u&gt;" style="ellipse;whiteSpace=wrap;html=1;fillColor=#000033;fontColor=#FFFFFF;strokeColor=#FFFFFF;" parent="1" vertex="1">
          <mxGeometry x="280" y="30" width="100" height="50" as="geometry" />
        </mxCell>
        <mxCell id="esi2cajje_tVkEboG6L--16" value="Dirección" style="ellipse;whiteSpace=wrap;html=1;fillColor=#000033;fontColor=#FFFFFF;strokeColor=#FFFFFF;" parent="1" vertex="1">
          <mxGeometry x="60" y="210" width="100" height="50" as="geometry" />
        </mxCell>
        <mxCell id="esi2cajje_tVkEboG6L--17" value="Salario" style="ellipse;whiteSpace=wrap;html=1;fillColor=#000033;fontColor=#FFFFFF;strokeColor=#FFFFFF;" parent="1" vertex="1">
          <mxGeometry x="130" y="270" width="100" height="50" as="geometry" />
        </mxCell>
        <mxCell id="esi2cajje_tVkEboG6L--18" value="" style="endArrow=none;html=1;rounded=0;entryX=0.41;entryY=1;entryDx=0;entryDy=0;entryPerimeter=0;exitX=0.75;exitY=0;exitDx=0;exitDy=0;strokeColor=#FFFFFF;" parent="1" source="esi2cajje_tVkEboG6L--1" target="esi2cajje_tVkEboG6L--13" edge="1">
          <mxGeometry width="50" height="50" relative="1" as="geometry">
            <mxPoint x="320" y="220" as="sourcePoint" />
            <mxPoint x="370" y="170" as="targetPoint" />
          </mxGeometry>
        </mxCell>
        <mxCell id="esi2cajje_tVkEboG6L--19" value="" style="endArrow=none;html=1;rounded=0;entryX=0.41;entryY=1;entryDx=0;entryDy=0;entryPerimeter=0;exitX=0.358;exitY=0;exitDx=0;exitDy=0;strokeColor=#FFFFFF;exitPerimeter=0;" parent="1" source="esi2cajje_tVkEboG6L--1" edge="1">
          <mxGeometry width="50" height="50" relative="1" as="geometry">
            <mxPoint x="209" y="160" as="sourcePoint" />
            <mxPoint x="220" y="80" as="targetPoint" />
          </mxGeometry>
        </mxCell>
        <mxCell id="esi2cajje_tVkEboG6L--20" value="" style="endArrow=none;html=1;rounded=0;entryX=0.41;entryY=1;entryDx=0;entryDy=0;entryPerimeter=0;exitX=0;exitY=0.25;exitDx=0;exitDy=0;strokeColor=#FFFFFF;" parent="1" source="esi2cajje_tVkEboG6L--1" edge="1">
          <mxGeometry width="50" height="50" relative="1" as="geometry">
            <mxPoint x="183" y="190" as="sourcePoint" />
            <mxPoint x="140" y="110" as="targetPoint" />
          </mxGeometry>
        </mxCell>
        <mxCell id="esi2cajje_tVkEboG6L--21" value="" style="endArrow=none;html=1;rounded=0;entryX=0.41;entryY=1;entryDx=0;entryDy=0;entryPerimeter=0;exitX=0;exitY=0.5;exitDx=0;exitDy=0;strokeColor=#FFFFFF;" parent="1" source="esi2cajje_tVkEboG6L--1" edge="1">
          <mxGeometry width="50" height="50" relative="1" as="geometry">
            <mxPoint x="220" y="245" as="sourcePoint" />
            <mxPoint x="140" y="180" as="targetPoint" />
          </mxGeometry>
        </mxCell>
        <mxCell id="esi2cajje_tVkEboG6L--22" value="" style="endArrow=none;html=1;rounded=0;entryX=0.41;entryY=1;entryDx=0;entryDy=0;entryPerimeter=0;exitX=0;exitY=0.75;exitDx=0;exitDy=0;strokeColor=#FFFFFF;" parent="1" source="esi2cajje_tVkEboG6L--1" edge="1">
          <mxGeometry width="50" height="50" relative="1" as="geometry">
            <mxPoint x="230" y="230" as="sourcePoint" />
            <mxPoint x="150" y="220" as="targetPoint" />
          </mxGeometry>
        </mxCell>
        <mxCell id="esi2cajje_tVkEboG6L--23" value="" style="endArrow=none;html=1;rounded=0;exitX=0;exitY=0.75;exitDx=0;exitDy=0;strokeColor=#FFFFFF;" parent="1" target="esi2cajje_tVkEboG6L--17" edge="1">
          <mxGeometry width="50" height="50" relative="1" as="geometry">
            <mxPoint x="245" y="220" as="sourcePoint" />
            <mxPoint x="175" y="235" as="targetPoint" />
          </mxGeometry>
        </mxCell>
        <mxCell id="esi2cajje_tVkEboG6L--24" value="conduce" style="rhombus;whiteSpace=wrap;html=1;fillColor=#3399FF;" parent="1" vertex="1">
          <mxGeometry x="390" y="150" width="80" height="80" as="geometry" />
        </mxCell>
        <mxCell id="esi2cajje_tVkEboG6L--26" value="" style="endArrow=none;html=1;rounded=0;exitX=1;exitY=0.5;exitDx=0;exitDy=0;strokeColor=#FFFFFF;" parent="1" source="esi2cajje_tVkEboG6L--1" edge="1">
          <mxGeometry width="50" height="50" relative="1" as="geometry">
            <mxPoint x="320" y="170" as="sourcePoint" />
            <mxPoint x="390" y="190" as="targetPoint" />
          </mxGeometry>
        </mxCell>
        <mxCell id="esi2cajje_tVkEboG6L--27" value="CAMIÓN" style="rounded=0;whiteSpace=wrap;html=1;strokeColor=#FFFFFF;fillColor=#33FF33;" parent="1" vertex="1">
          <mxGeometry x="520" y="160" width="120" height="60" as="geometry" />
        </mxCell>
        <mxCell id="esi2cajje_tVkEboG6L--28" value="&lt;u&gt;Matricula&lt;/u&gt;" style="ellipse;whiteSpace=wrap;html=1;fillColor=#000033;fontColor=#FFFFFF;strokeColor=#FFFFFF;" parent="1" vertex="1">
          <mxGeometry x="610" y="30" width="100" height="50" as="geometry" />
        </mxCell>
        <mxCell id="esi2cajje_tVkEboG6L--29" value="" style="endArrow=none;html=1;rounded=0;entryX=0.41;entryY=1;entryDx=0;entryDy=0;entryPerimeter=0;exitX=0.75;exitY=0;exitDx=0;exitDy=0;strokeColor=#FFFFFF;" parent="1" source="esi2cajje_tVkEboG6L--27" target="esi2cajje_tVkEboG6L--28" edge="1">
          <mxGeometry width="50" height="50" relative="1" as="geometry">
            <mxPoint x="640" y="160" as="sourcePoint" />
            <mxPoint x="700" y="170" as="targetPoint" />
          </mxGeometry>
        </mxCell>
        <mxCell id="esi2cajje_tVkEboG6L--30" value="Potencia" style="ellipse;whiteSpace=wrap;html=1;fillColor=#000033;fontColor=#FFFFFF;strokeColor=#FFFFFF;" parent="1" vertex="1">
          <mxGeometry x="490" y="30" width="100" height="50" as="geometry" />
        </mxCell>
        <mxCell id="esi2cajje_tVkEboG6L--31" value="" style="endArrow=none;html=1;rounded=0;entryX=0.41;entryY=1;entryDx=0;entryDy=0;entryPerimeter=0;strokeColor=#FFFFFF;" parent="1" target="esi2cajje_tVkEboG6L--30" edge="1">
          <mxGeometry width="50" height="50" relative="1" as="geometry">
            <mxPoint x="534" y="160" as="sourcePoint" />
            <mxPoint x="580" y="170" as="targetPoint" />
          </mxGeometry>
        </mxCell>
        <mxCell id="esi2cajje_tVkEboG6L--32" value="" style="endArrow=none;html=1;rounded=0;exitX=1;exitY=0.5;exitDx=0;exitDy=0;strokeColor=#FFFFFF;" parent="1" edge="1">
          <mxGeometry width="50" height="50" relative="1" as="geometry">
            <mxPoint x="470" y="189" as="sourcePoint" />
            <mxPoint x="520" y="189" as="targetPoint" />
          </mxGeometry>
        </mxCell>
        <mxCell id="esi2cajje_tVkEboG6L--33" value="Modelo" style="ellipse;whiteSpace=wrap;html=1;fillColor=#000033;fontColor=#FFFFFF;strokeColor=#FFFFFF;" parent="1" vertex="1">
          <mxGeometry x="690" y="80" width="100" height="50" as="geometry" />
        </mxCell>
        <mxCell id="esi2cajje_tVkEboG6L--34" value="" style="endArrow=none;html=1;rounded=0;entryX=0.41;entryY=1;entryDx=0;entryDy=0;entryPerimeter=0;exitX=1;exitY=0.25;exitDx=0;exitDy=0;strokeColor=#FFFFFF;" parent="1" source="esi2cajje_tVkEboG6L--27" target="esi2cajje_tVkEboG6L--33" edge="1">
          <mxGeometry width="50" height="50" relative="1" as="geometry">
            <mxPoint x="720" y="210" as="sourcePoint" />
            <mxPoint x="780" y="220" as="targetPoint" />
          </mxGeometry>
        </mxCell>
        <mxCell id="esi2cajje_tVkEboG6L--35" value="Tipo" style="ellipse;whiteSpace=wrap;html=1;fillColor=#000033;fontColor=#FFFFFF;strokeColor=#FFFFFF;" parent="1" vertex="1">
          <mxGeometry x="715" y="165" width="100" height="50" as="geometry" />
        </mxCell>
        <mxCell id="esi2cajje_tVkEboG6L--36" value="" style="endArrow=none;html=1;rounded=0;entryX=0;entryY=0.68;entryDx=0;entryDy=0;entryPerimeter=0;exitX=1;exitY=0.75;exitDx=0;exitDy=0;strokeColor=#FFFFFF;" parent="1" source="esi2cajje_tVkEboG6L--27" target="esi2cajje_tVkEboG6L--35" edge="1">
          <mxGeometry width="50" height="50" relative="1" as="geometry">
            <mxPoint x="665" y="260" as="sourcePoint" />
            <mxPoint x="805" y="305" as="targetPoint" />
          </mxGeometry>
        </mxCell>
        <mxCell id="esi2cajje_tVkEboG6L--37" value="distribuye" style="rhombus;whiteSpace=wrap;html=1;fillColor=#3399FF;" parent="1" vertex="1">
          <mxGeometry x="240" y="300" width="80" height="80" as="geometry" />
        </mxCell>
        <mxCell id="esi2cajje_tVkEboG6L--38" value="" style="endArrow=none;html=1;rounded=0;exitX=0.5;exitY=0;exitDx=0;exitDy=0;strokeColor=#FFFFFF;entryX=0.5;entryY=1;entryDx=0;entryDy=0;" parent="1" source="esi2cajje_tVkEboG6L--37" target="esi2cajje_tVkEboG6L--1" edge="1">
          <mxGeometry width="50" height="50" relative="1" as="geometry">
            <mxPoint x="280" y="259" as="sourcePoint" />
            <mxPoint x="330" y="259" as="targetPoint" />
          </mxGeometry>
        </mxCell>
        <mxCell id="esi2cajje_tVkEboG6L--39" value="PAQUETE" style="rounded=0;whiteSpace=wrap;html=1;strokeColor=#FFFFFF;fillColor=#33FF33;" parent="1" vertex="1">
          <mxGeometry x="220" y="400" width="120" height="60" as="geometry" />
        </mxCell>
        <mxCell id="esi2cajje_tVkEboG6L--40" value="" style="endArrow=none;html=1;rounded=0;exitX=0.5;exitY=0;exitDx=0;exitDy=0;strokeColor=#FFFFFF;entryX=0.5;entryY=1;entryDx=0;entryDy=0;" parent="1" source="esi2cajje_tVkEboG6L--39" target="esi2cajje_tVkEboG6L--37" edge="1">
          <mxGeometry width="50" height="50" relative="1" as="geometry">
            <mxPoint x="290" y="310" as="sourcePoint" />
            <mxPoint x="290" y="230" as="targetPoint" />
          </mxGeometry>
        </mxCell>
        <mxCell id="esi2cajje_tVkEboG6L--41" value="&lt;u&gt;Codigo&lt;/u&gt;" style="ellipse;whiteSpace=wrap;html=1;fillColor=#000033;fontColor=#FFFFFF;strokeColor=#FFFFFF;" parent="1" vertex="1">
          <mxGeometry x="30" y="390" width="100" height="50" as="geometry" />
        </mxCell>
        <mxCell id="esi2cajje_tVkEboG6L--42" value="" style="endArrow=none;html=1;rounded=0;entryX=1;entryY=0.5;entryDx=0;entryDy=0;exitX=0;exitY=0.5;exitDx=0;exitDy=0;strokeColor=#FFFFFF;" parent="1" source="esi2cajje_tVkEboG6L--39" target="esi2cajje_tVkEboG6L--41" edge="1">
          <mxGeometry width="50" height="50" relative="1" as="geometry">
            <mxPoint x="60" y="520" as="sourcePoint" />
            <mxPoint x="120" y="530" as="targetPoint" />
          </mxGeometry>
        </mxCell>
        <mxCell id="esi2cajje_tVkEboG6L--47" value="Descripción" style="ellipse;whiteSpace=wrap;html=1;fillColor=#000033;fontColor=#FFFFFF;strokeColor=#FFFFFF;" parent="1" vertex="1">
          <mxGeometry x="40" y="460" width="100" height="50" as="geometry" />
        </mxCell>
        <mxCell id="esi2cajje_tVkEboG6L--48" value="" style="endArrow=none;html=1;rounded=0;entryX=1;entryY=0.5;entryDx=0;entryDy=0;exitX=0;exitY=1;exitDx=0;exitDy=0;strokeColor=#FFFFFF;" parent="1" source="esi2cajje_tVkEboG6L--39" target="esi2cajje_tVkEboG6L--47" edge="1">
          <mxGeometry width="50" height="50" relative="1" as="geometry">
            <mxPoint x="230" y="500" as="sourcePoint" />
            <mxPoint x="130" y="600" as="targetPoint" />
          </mxGeometry>
        </mxCell>
        <mxCell id="esi2cajje_tVkEboG6L--49" value="Destinatario" style="ellipse;whiteSpace=wrap;html=1;fillColor=#000033;fontColor=#FFFFFF;strokeColor=#FFFFFF;" parent="1" vertex="1">
          <mxGeometry x="150" y="500" width="100" height="50" as="geometry" />
        </mxCell>
        <mxCell id="esi2cajje_tVkEboG6L--50" value="" style="endArrow=none;html=1;rounded=0;entryX=1;entryY=0;entryDx=0;entryDy=0;exitX=0.5;exitY=1;exitDx=0;exitDy=0;strokeColor=#FFFFFF;" parent="1" source="esi2cajje_tVkEboG6L--39" target="esi2cajje_tVkEboG6L--49" edge="1">
          <mxGeometry width="50" height="50" relative="1" as="geometry">
            <mxPoint x="330" y="500" as="sourcePoint" />
            <mxPoint x="240" y="640" as="targetPoint" />
          </mxGeometry>
        </mxCell>
        <mxCell id="esi2cajje_tVkEboG6L--51" value="Dirección" style="ellipse;whiteSpace=wrap;html=1;fillColor=#000033;fontColor=#FFFFFF;strokeColor=#FFFFFF;" parent="1" vertex="1">
          <mxGeometry x="265" y="510" width="100" height="50" as="geometry" />
        </mxCell>
        <mxCell id="esi2cajje_tVkEboG6L--52" value="" style="endArrow=none;html=1;rounded=0;entryX=0.5;entryY=0;entryDx=0;entryDy=0;exitX=0.7;exitY=1.033;exitDx=0;exitDy=0;strokeColor=#FFFFFF;exitPerimeter=0;" parent="1" source="esi2cajje_tVkEboG6L--39" target="esi2cajje_tVkEboG6L--51" edge="1">
          <mxGeometry width="50" height="50" relative="1" as="geometry">
            <mxPoint x="395" y="470" as="sourcePoint" />
            <mxPoint x="355" y="650" as="targetPoint" />
          </mxGeometry>
        </mxCell>
        <mxCell id="esi2cajje_tVkEboG6L--53" value="CIUDAD" style="rounded=0;whiteSpace=wrap;html=1;strokeColor=#FFFFFF;fillColor=#33FF33;" parent="1" vertex="1">
          <mxGeometry x="520" y="400" width="120" height="60" as="geometry" />
        </mxCell>
        <mxCell id="esi2cajje_tVkEboG6L--60" value="destinado" style="rhombus;whiteSpace=wrap;html=1;fillColor=#3399FF;" parent="1" vertex="1">
          <mxGeometry x="390" y="390" width="80" height="80" as="geometry" />
        </mxCell>
        <mxCell id="esi2cajje_tVkEboG6L--61" value="" style="endArrow=none;html=1;rounded=0;exitX=1;exitY=0.5;exitDx=0;exitDy=0;strokeColor=#FFFFFF;" parent="1" edge="1">
          <mxGeometry width="50" height="50" relative="1" as="geometry">
            <mxPoint x="340" y="430" as="sourcePoint" />
            <mxPoint x="390" y="430" as="targetPoint" />
          </mxGeometry>
        </mxCell>
        <mxCell id="esi2cajje_tVkEboG6L--62" value="" style="endArrow=none;html=1;rounded=0;exitX=1;exitY=0.5;exitDx=0;exitDy=0;strokeColor=#FFFFFF;" parent="1" edge="1">
          <mxGeometry width="50" height="50" relative="1" as="geometry">
            <mxPoint x="470" y="429" as="sourcePoint" />
            <mxPoint x="520" y="429" as="targetPoint" />
          </mxGeometry>
        </mxCell>
        <mxCell id="esi2cajje_tVkEboG6L--63" value="&lt;u&gt;Codigo&lt;/u&gt;" style="ellipse;whiteSpace=wrap;html=1;fillColor=#000033;fontColor=#FFFFFF;strokeColor=#FFFFFF;" parent="1" vertex="1">
          <mxGeometry x="625" y="315" width="100" height="50" as="geometry" />
        </mxCell>
        <mxCell id="esi2cajje_tVkEboG6L--64" value="" style="endArrow=none;html=1;rounded=0;exitX=1;exitY=0;exitDx=0;exitDy=0;strokeColor=#FFFFFF;entryX=0.41;entryY=0.96;entryDx=0;entryDy=0;entryPerimeter=0;" parent="1" source="esi2cajje_tVkEboG6L--53" target="esi2cajje_tVkEboG6L--63" edge="1">
          <mxGeometry width="50" height="50" relative="1" as="geometry">
            <mxPoint x="815" y="355" as="sourcePoint" />
            <mxPoint x="680" y="370" as="targetPoint" />
          </mxGeometry>
        </mxCell>
        <mxCell id="esi2cajje_tVkEboG6L--67" value="Nombre" style="ellipse;whiteSpace=wrap;html=1;fillColor=#000033;fontColor=#FFFFFF;strokeColor=#FFFFFF;" parent="1" vertex="1">
          <mxGeometry x="650" y="480" width="100" height="50" as="geometry" />
        </mxCell>
        <mxCell id="esi2cajje_tVkEboG6L--68" value="" style="endArrow=none;html=1;rounded=0;entryX=0.2;entryY=0;entryDx=0;entryDy=0;exitX=1;exitY=0.75;exitDx=0;exitDy=0;strokeColor=#FFFFFF;entryPerimeter=0;" parent="1" source="esi2cajje_tVkEboG6L--53" target="esi2cajje_tVkEboG6L--67" edge="1">
          <mxGeometry width="50" height="50" relative="1" as="geometry">
            <mxPoint x="780" y="440" as="sourcePoint" />
            <mxPoint x="740" y="620" as="targetPoint" />
          </mxGeometry>
        </mxCell>
        <mxCell id="esi2cajje_tVkEboG6L--69" value="&lt;font color=&quot;#ffffff&quot;&gt;N:M&lt;/font&gt;" style="text;html=1;align=center;verticalAlign=middle;resizable=0;points=[];autosize=1;strokeColor=none;fillColor=none;" parent="1" vertex="1">
          <mxGeometry x="405" y="230" width="50" height="30" as="geometry" />
        </mxCell>
        <mxCell id="esi2cajje_tVkEboG6L--70" value="&lt;font color=&quot;#ffffff&quot;&gt;1:N&lt;br&gt;&lt;/font&gt;" style="text;html=1;align=center;verticalAlign=middle;resizable=0;points=[];autosize=1;strokeColor=none;fillColor=none;" parent="1" vertex="1">
          <mxGeometry x="320" y="325" width="40" height="30" as="geometry" />
        </mxCell>
        <mxCell id="esi2cajje_tVkEboG6L--71" value="&lt;font color=&quot;#ffffff&quot;&gt;M:1&lt;br&gt;&lt;/font&gt;" style="text;html=1;align=center;verticalAlign=middle;resizable=0;points=[];autosize=1;strokeColor=none;fillColor=none;" parent="1" vertex="1">
          <mxGeometry x="410" y="355" width="40" height="30" as="geometry" />
        </mxCell>
        <mxCell id="0Uj2PFpj9pDhKFYauN1p-1" value="Telefono" style="ellipse;shape=doubleEllipse;margin=3;whiteSpace=wrap;html=1;align=center;fillColor=#000033;fontColor=#FFFFFF;strokeColor=#FFFFFF;" vertex="1" parent="1">
          <mxGeometry x="50" y="140" width="100" height="50" as="geometry" />
        </mxCell>
      </root>
    </mxGraphModel>
  </diagram>
</mxfile>
